<?xml version="1.0" standalone="no"?>
<!DOCTYPE svg PUBLIC "-//W3C//DTD SVG 1.1//EN" "http://www.w3.org/Graphics/SVG/1.1/DTD/svg11.dtd" >
<svg xmlns="http://www.w3.org/2000/svg" xmlns:xlink="http://www.w3.org/1999/xlink" version="1.1">
<metadata></metadata>
<defs>
<font id="chintzy_cpu_brkregular" horiz-adv-x="1423" >
<font-face units-per-em="2048" ascent="1638" descent="-410" />
<missing-glyph horiz-adv-x="1024" />
<glyph horiz-adv-x="0" />
<glyph horiz-adv-x="682" />
<glyph unicode=" "  horiz-adv-x="1024" />
<glyph unicode="&#x09;" horiz-adv-x="1024" />
<glyph unicode="&#xa0;" horiz-adv-x="1024" />
<glyph unicode="!" horiz-adv-x="454" d="M20 532v711q0 49 27 78t65 44t80.5 20.5t75.5 5.5q25 0 53.5 -11.5t53 -31t40 -45t15.5 -52.5v-331q0 -18 -13.5 -42t-25.5 -36q-6 -8 -23.5 -26.5t-37 -40t-38 -40l-24.5 -24.5q-18 -31 -22 -79t-12.5 -94t-30 -80t-74.5 -34q-18 0 -37.5 9t-35 24.5t-26 35t-10.5 39.5z M43 119q0 16 9 34.5t23.5 34t32 25.5t35.5 10h164q18 0 36.5 -10t33 -25.5t23 -34t8.5 -36.5q0 -35 -19.5 -56.5t-47.5 -34t-59.5 -16.5t-56.5 -4q-27 0 -58.5 5t-59 17.5t-46 34t-18.5 56.5z" />
<glyph unicode="&#x22;" horiz-adv-x="1036" d="M20 1190q0 -37 4 -70.5t27 -66.5q8 -8 26.5 -27.5t40 -41t40 -42t24.5 -29.5q20 -23 29.5 -56.5t21 -66t31 -55t62.5 -22.5q16 0 34.5 9t34 22.5t25.5 32t10 36.5v457q0 25 -16.5 47t-41 39.5t-52 28t-48.5 10.5h-4q-6 0 -23.5 -1t-38 -3t-37.5 -3.5t-24 -1.5 q-70 -20 -97.5 -76.5t-27.5 -119.5zM600 1190q0 -37 5 -70.5t28 -66.5q8 -8 26.5 -27.5t40 -41t40 -42t24.5 -29.5q20 -23 29.5 -56.5t20.5 -66t30.5 -55t62.5 -22.5q16 0 35 9t34 22.5t25.5 32t10.5 36.5v457q0 27 -17.5 49t-42 38.5t-53.5 27t-49 10.5q-6 0 -24.5 -1 t-38 -3t-38 -3.5t-24.5 -1.5q-68 -20 -96.5 -76.5t-28.5 -119.5z" />
<glyph unicode="#" horiz-adv-x="1370" d="M20 313q0 39 25 60.5t53.5 34t53 20.5t24.5 21v503q0 10 -24.5 18.5t-53 22t-53.5 35t-25 59.5q0 45 21.5 66t49.5 29t52.5 12t32.5 20q4 25 12.5 50.5t22.5 48t34.5 37t49.5 14.5q43 0 63.5 -25.5t32.5 -56.5t23.5 -56.5t40.5 -25.5h448q33 0 46.5 25.5t24.5 56.5 t30.5 56.5t66.5 25.5q43 0 63.5 -22.5t30 -50t14.5 -52.5t19 -31q20 -12 47 -20t49.5 -19.5t38 -30t15.5 -51.5q0 -43 -26 -63t-56.5 -32.5t-56 -25t-25.5 -38.5v-457q0 -29 25.5 -40t56 -23.5t56.5 -32t26 -62.5t-22.5 -63.5t-50.5 -30.5t-52.5 -16t-30.5 -19 q-12 -23 -20.5 -48t-19.5 -47.5t-29.5 -37t-51.5 -14.5q-37 0 -59.5 24.5t-36.5 53t-22.5 53.5t-16.5 25h-311q-6 0 -14.5 -16.5t-16.5 -36t-14.5 -37t-8.5 -19.5q-35 -47 -78.5 -62.5t-99.5 -15.5q-180 0 -217 178l-8 9q-25 6 -50.5 14t-47 22.5t-36 35t-14.5 48.5z M416 934q0 -31 22 -60q8 -10 26.5 -29.5t40 -41t40 -41t26.5 -27.5l27 -47v-217q0 -16 17.5 -31.5t33.5 -15.5h262q4 0 21.5 7t17.5 18v503l-14 15h-504q-14 0 -15 -13.5t-1 -19.5z" />
<glyph unicode="$" d="M20 758v278q0 16 10.5 46t20.5 40l240 240l47 22l704 9q20 0 50 -8.5t45 -22.5l231 -234q10 -8 9 -19t-1 -22q0 -39 -22.5 -60t-59.5 -21q-10 0 -21 -1t-22 9l-131 123l-47 24h-123l-22 -24v-295q0 -10 17.5 -19.5t27.5 -11.5q6 0 22.5 -1t35 -2t35.5 -2t24 -1l47 -25 l239 -239l23 -47v-170l-23 -48l-239 -239q-14 -14 -44 -22.5t-51 -8.5h-657q-20 0 -50 8.5t-44 22.5l-232 233q-10 8 -9 19.5t1 21.5q0 39 22.5 60.5t59.5 21.5q10 0 21.5 1t21.5 -9l131 -123v295l-22 23q-43 2 -90.5 9t-85 25.5t-63.5 53t-26 90.5zM244 989q0 -10 3 -33.5 t10 -47t19.5 -42t30.5 -18.5v285q-18 0 -30.5 -18.5t-19.5 -42t-10 -47.5t-3 -36zM539 262q0 -12 10 -18t22.5 -9.5t25.5 -4.5t19 -1t19.5 1t26 4.5t22.5 9.5t10 18v295l-22 23h-109l-24 -23v-295zM539 842q0 -16 20.5 -23.5t36.5 -7.5h20h19q18 0 38.5 7t20.5 24v295 l-22 24h-109l-24 -24v-295zM928 266q8 0 17 10.5t17.5 22.5t13.5 24.5t5 16.5v139q0 2 -5 13.5t-13.5 23.5t-16.5 22.5t-16 10.5h-2v-283z" />
<glyph unicode="%" d="M20 950q0 -33 14.5 -63.5t38 -54t54.5 -38t63 -14.5h273q20 0 49 9.5t53.5 27t42 40t17.5 48.5v363q0 25 -16.5 47t-41 39.5t-52.5 28t-48 10.5h-4q-18 0 -63.5 -1t-96.5 -3.5t-95.5 -3.5t-62.5 -1q-47 -14 -86 -58t-39 -95v-281zM50 140.5q1 -11.5 1 -21.5 q0 -37 22.5 -59.5t59.5 -22.5q10 0 21.5 -1t21.5 9l1192 1192q10 10 9 21.5t-1 21.5q0 37 -22.5 59.5t-59.5 22.5q-10 0 -21 1t-22 -9l-1192 -1192q-10 -10 -9 -21.5zM244 1087v17q0 16 4 36.5t20 20.5h117l14 -16v-117q0 -16 -21.5 -19t-37.5 -3h-18q-45 0 -61.5 18 t-16.5 63zM795 176q0 -55 36 -100.5t89 -61.5q4 -2 22.5 -5t22.5 -3h272q20 0 49 9.5t53.5 26.5t42 39.5t17.5 49.5v363q0 14 -12.5 34.5t-30 39t-38 30.5t-36.5 12h-362q-25 0 -47.5 -16t-40 -41t-27.5 -51.5t-10 -46.5v-279zM1020 311v17q0 16 3 36.5t19 20.5h117l17 -14 v-117q0 -16 -20.5 -20.5t-37.5 -4.5h-16q-47 0 -64.5 17.5t-17.5 64.5z" />
<glyph unicode="&#x26;" horiz-adv-x="1400" d="M20 371q0 -20 8.5 -49t22.5 -46l240 -239q16 -14 45 -22.5t49 -8.5h659q18 0 47 11.5t56 28.5t45 40t18 45v309q0 31 27 43.5t57.5 23.5t57 30.5t26.5 62.5t-20.5 63.5t-47 31t-52 16.5t-35.5 24q-12 20 -20.5 46t-20 48.5t-29.5 38t-51 15.5q-41 0 -61.5 -26t-33 -56.5 t-21.5 -56t-28 -25.5h-495q-8 0 -29.5 10t-25.5 12l-132 133q-12 12 -21 37t-9 41v170q0 4 7 23.5t15 19.5h488q23 0 47 9.5t45.5 24.5t35 36.5t13.5 44.5q0 25 -13.5 46.5t-35 35.5t-47 22.5t-47.5 8.5h-4h-72q-45 0 -106.5 -1t-125 -2t-125 -2.5t-106.5 -1.5h-70 q-47 -14 -86 -59t-39 -96v-860zM438 406v18q0 20 7.5 41.5t23.5 21.5h489l23 -24v-209q0 -10 -17.5 -16.5t-21.5 -6.5h-356q-37 0 -64.5 15.5t-46 40t-28 56.5t-9.5 63z" />
<glyph unicode="'" horiz-adv-x="454" d="M20 1114v139q0 10 10.5 31l12.5 25q18 31 43 48t52.5 25.5t59 9.5t66.5 1q25 0 54.5 -11.5t54 -30t41 -44t16.5 -54.5v-424q0 -20 -9 -40.5t-24.5 -38t-35 -27.5t-39.5 -10q-39 0 -59.5 20.5t-32 49t-19 60t-21.5 56.5q-43 43 -90 88t-71 105q-2 4 -5 13z" />
<glyph unicode="(" horiz-adv-x="716" d="M20 338v719q0 16 13.5 40.5t25.5 37.5l215 215q10 10 30 20t34 12l215 7q25 0 49.5 -8.5t45 -23t33.5 -34.5t13 -45q0 -27 -13 -47.5t-33.5 -33.5t-45 -21.5t-49.5 -10.5q-12 0 -41 -1t-62.5 -3t-63.5 -3t-42 -1q-31 -8 -65.5 -40t-34.5 -68v-123l24 -47l24.5 -24.5 t38 -40t37 -40t23.5 -26.5q2 -2 7 -10.5t10 -12.5q6 -10 16 -31.5t10 -23.5v-324q0 -4 10.5 -21.5t16.5 -25.5q25 -31 64.5 -47t77.5 -31.5t64.5 -37t26.5 -64.5t-24.5 -65.5t-60.5 -34t-75.5 -12.5t-68.5 -1q-45 0 -99.5 1t-91.5 38l-215 215q-12 12 -25.5 37t-13.5 41z " />
<glyph unicode=")" horiz-adv-x="716" d="M20 119q0 -43 25 -65.5t59.5 -34t74.5 -12.5t69 -1q20 0 45.5 -1t51.5 2t50.5 11.5t42.5 26.5l215 215q12 12 25.5 37t13.5 41v332q0 2 -2 11t-6 13q-23 55 -68 99.5t-86 85.5l-22 47v49q0 41 -10.5 87t-36.5 73l-217 215q-16 16 -43 27.5t-49 11.5q-23 0 -46.5 -8.5 t-42 -24t-31 -34.5t-12.5 -44q0 -45 27 -66.5t63.5 -37t75.5 -31t66 -47.5q4 -4 13 -25.5t9 -28.5v-688q0 -2 -2 -11t-4 -13q-23 -49 -63.5 -69.5t-81.5 -36t-72 -37t-31 -68.5z" />
<glyph unicode="*" horiz-adv-x="980" d="M20 700q0 -41 25 -63.5t59.5 -34.5t73.5 -16t68 -6l-133 -140q-12 -14 -17.5 -37t-5.5 -41q0 -61 62 -61q18 0 40.5 5t36.5 18l240 233h39l240 -233q14 -12 36.5 -17.5t40.5 -5.5q63 0 64 61q0 18 -5 41t-20 37l-131 140q29 2 68 6t73.5 16t59 34.5t24.5 63.5q0 14 -8 34 t-22.5 36t-30.5 27.5t-33 11.5h-116l-15 10l131 139q14 14 19.5 37t5.5 41q0 63 -64 64q-18 0 -40.5 -5t-36.5 -20l-240 -231h-39l-240 231q-14 14 -36.5 19.5t-40.5 5.5q-61 0 -62 -64q0 -18 5 -40.5t18 -37.5l133 -139l-17 -10h-116q-16 0 -33 -11.5t-30 -27.5 t-21.5 -35.5t-8.5 -34.5z" />
<glyph unicode="+" horiz-adv-x="1370" d="M20 702q0 -25 13.5 -46t33 -36.5t44 -24.5t49.5 -9h286l27 -27v-311q0 -4 4 -13.5t8 -19.5t9.5 -18.5t7.5 -10.5q41 -51 80 -64t102 -13q59 0 109.5 16t78.5 76q4 10 12.5 27.5t8.5 19.5v311l27 27h286q25 0 49.5 9t45 24.5t34 37t13.5 45.5q0 14 -8.5 34t-22.5 36 t-30.5 27.5t-33.5 11.5h-311q-12 0 -41 10t-43 25l-133 131q-25 25 -28 56.5t-3 64.5q0 35 -4 67.5t-26 59.5q-23 25 -35.5 36t-42.5 11q-18 0 -38 -11.5t-36 -27.5t-27.5 -37.5t-11.5 -40.5v-309q0 -6 -21.5 -20.5t-27.5 -14.5h-311q-16 0 -33 -11.5t-30 -27.5t-21.5 -35.5 t-8.5 -34.5z" />
<glyph unicode="," horiz-adv-x="524" d="M20 121q0 -45 27 -66.5t63.5 -36t75.5 -28t66 -43.5q23 -29 27 -77t10 -95t26.5 -81t75.5 -34q18 0 38 9t35 24.5t25.5 35t10.5 40.5v323q0 18 -12.5 42t-31 43.5t-40 33.5t-39.5 14h-264q-37 0 -65 -35.5t-28 -68.5z" />
<glyph unicode="-" horiz-adv-x="1370" d="M20 700q0 -27 13.5 -47t33 -34.5t44 -22.5t49.5 -8h1046q25 0 49.5 8t45 22.5t34 35t13.5 46.5q0 35 -29 70t-66 35h-1140q-37 0 -65 -35t-28 -70z" />
<glyph unicode="." horiz-adv-x="407" d="M20 119q0 -35 18.5 -56.5t46.5 -34t59.5 -17.5t58.5 -5q25 0 56.5 4t59 16.5t47 34t19.5 56.5q0 18 -9 36.5t-23.5 34t-33 25.5t-36.5 10h-162q-18 0 -35.5 -10t-32 -25.5t-24 -34t-9.5 -34.5z" />
<glyph unicode="/" horiz-adv-x="1370" d="M18 111v24q0 16 11 27l1194 1192q10 10 18 10h23q39 0 61.5 -22.5t22.5 -61.5v-23q0 -8 -11 -18l-1192 -1194q-10 -10 -21 -9t-22 1q-35 0 -59.5 18.5t-24.5 55.5z" />
<glyph unicode="0" horiz-adv-x="1431" d="M20 176q0 -33 14.5 -63.5t38 -54t54.5 -38t63 -14.5h1047q31 0 61.5 13.5t55 37t39 53t14.5 62.5v4v127t-1 193.5t-2 226.5t-2 226.5t-2 193.5t-1 127q-14 51 -61.5 87t-100.5 36l-1092 -9q-27 0 -49 -17t-39.5 -42t-27 -53.5t-9.5 -48.5v-1047zM246 379v643q0 18 8 41.5 t23.5 45t35 37t41.5 15.5h697l-799 -799zM385 238v6v2l791 790v-696q0 -20 -14.5 -39.5t-34 -35t-43 -25t-42.5 -9.5h-649q-8 0 -8 7z" />
<glyph unicode="1" horiz-adv-x="454" d="M20 145q0 -37 21.5 -63.5t52.5 -44t67 -24.5t64 -7q29 0 65 7t66.5 24.5t52 44.5t21.5 63v1106q0 27 -15.5 52.5t-40 45t-53 31t-53.5 11.5q-27 0 -64.5 -2.5t-73.5 -12.5t-61.5 -32.5t-25.5 -65.5q0 -14 2 -25.5t14 -23.5l123 -131l25 -47q0 -2 1 -20.5t1 -29.5 q0 -29 -1.5 -58t-17.5 -54q-8 -8 -26.5 -27.5t-40 -42t-39.5 -42t-25 -27.5q-12 -14 -25.5 -38t-13.5 -40v-527z" />
<glyph unicode="2" horiz-adv-x="1431" d="M20 176q0 -33 14.5 -63.5t38 -54t54.5 -38t63 -14.5h1047q53 0 97 33t44 88q0 14 -9 31.5t-22.5 33t-31 25.5t-31.5 10h-698q-37 0 -64.5 17.5t-46 43t-28 58.5t-9.5 64q0 41 13.5 79.5t50.5 67.5q8 6 25.5 16.5t19.5 10.5h690q31 0 61.5 14t55 39t39 55.5t14.5 61.5v4 q0 29 -1 100.5t-3 153.5t-3 154.5t-1 103.5q-14 51 -61.5 87t-100.5 36l-1092 -9q-39 0 -66.5 -34.5t-27.5 -69.5q0 -25 13.5 -46.5t34 -36.5t45 -23.5t46.5 -8.5h885q12 0 29.5 -11t33 -27.5t27 -35t11.5 -30.5v-141q0 -18 -14.5 -39t-35 -36.5t-43 -25.5t-41.5 -10h-897 q-23 0 -45 -18.5t-39.5 -45t-29 -55t-11.5 -49.5v-465z" />
<glyph unicode="3" horiz-adv-x="1400" d="M20 119q0 -27 13.5 -47.5t33 -34.5t44 -22.5t49.5 -8.5h1046q31 0 61.5 13.5t54.5 36t39 52t15 60.5v8q0 57 -2 144.5t-3 169t-2 140.5l-1 58l-22 47l-132 139q-4 2 -9 12.5t-11 25t-10 27.5t-4 19v312q0 20 -18.5 41.5t-44 40t-53.5 30t-46 11.5h-6h-105q-68 0 -158 -1 t-186 -2t-187 -2.5t-161 -1.5h-102q-37 -12 -65 -38.5t-28 -67.5q0 -25 13.5 -46.5t33 -36.5t44 -23.5t49.5 -8.5h690q20 0 37.5 -14t32 -33.5t24.5 -42t14 -39.5q0 -31 -4 -70.5t-18 -74.5t-42 -58.5t-75 -23.5h-317q-16 0 -33.5 -11.5t-31 -27.5t-21.5 -35.5t-8 -34.5 q0 -25 13 -46t33.5 -36.5t45 -24.5t47.5 -9h303q20 0 37.5 -14.5t32 -34t24.5 -42t14 -38.5q0 -31 -4 -71t-18 -75t-42 -58.5t-75 -23.5h-706q-16 0 -33 -11t-30 -27.5t-21.5 -36t-8.5 -33.5z" />
<glyph unicode="4" horiz-adv-x="1400" d="M20 563q0 -31 14.5 -62.5t38 -56t54.5 -40t63 -15.5h496q6 0 24.5 -11t22.5 -16q37 -33 46 -68.5t11.5 -70.5t6.5 -70.5t30 -68.5q35 -47 79 -62.5t100 -15.5q35 0 70.5 9.5t65 27.5t49 48t23.5 71q0 18 -1 40.5t1.5 46t8.5 45t22 38.5l123 131q10 10 10 26v27q0 4 -1 14 l-1 11l-131 139q-4 2 -10 13.5t-11 25.5t-9.5 27.5t-4.5 19.5v504q0 16 -11 32.5t-27.5 31t-36 22.5t-33.5 8q-25 0 -46.5 -13.5t-36.5 -34t-24.5 -46t-9.5 -47.5v-496q0 -18 -15.5 -36.5t-37 -35t-45 -27t-37.5 -10.5h-457q-29 0 -55.5 12.5t-48 34t-34.5 47t-13 54.5v504 q0 16 -11.5 32.5t-28 31t-36 22.5t-33.5 8q-25 0 -46 -13.5t-35.5 -34t-23 -45t-8.5 -48.5v-660z" />
<glyph unicode="5" horiz-adv-x="1431" d="M20 758q0 -31 14.5 -62.5t38 -56.5t54.5 -40t63 -15h691q20 0 37.5 -14.5t32 -34t24.5 -42t14 -38.5q0 -31 -4 -71t-18.5 -75t-42 -58.5t-74.5 -23.5h-705q-16 0 -33.5 -11t-30.5 -27.5t-21.5 -36t-8.5 -33.5q0 -27 13.5 -47.5t33 -34.5t44 -22.5t48.5 -8.5h1047 q31 0 61.5 13.5t54 36t39 52t15.5 60.5v8q0 29 -1 101.5t-3 154.5t-3 154.5t-1 101.5q-4 12 -16.5 32.5t-30 40t-36 34t-32.5 14.5h-891q-37 0 -64.5 16.5t-47 43t-28.5 58t-9 62.5q0 43 14 82t49 66q8 6 25.5 17t21.5 11h883q53 0 97 35t44 88q0 25 -14 43.5t-34.5 32.5 t-46.5 21.5t-46 7.5l-1092 -9q-25 0 -48 -17t-39.5 -42t-27 -53.5t-10.5 -48.5v-465z" />
<glyph unicode="6" horiz-adv-x="1431" d="M20 176q0 -33 14.5 -63.5t38 -54t54.5 -38t63 -14.5h1047q31 0 61.5 13.5t54 36t39 52t15.5 60.5v8q0 29 -1 101.5t-3 154.5t-3 154.5t-1 101.5q-4 12 -16.5 32.5t-30 40t-36 34t-32.5 14.5h-891q-37 0 -64.5 16.5t-47 43t-28.5 58t-9 62.5q0 43 14 82t49 66q8 6 25.5 17 t21.5 11h883q53 0 97 35t44 88q0 25 -14 43.5t-34.5 32.5t-46.5 21.5t-46 7.5l-1092 -9q-25 0 -48 -17t-39.5 -42t-27 -53.5t-10.5 -48.5v-1047zM244 410q0 20 6 49.5t19.5 56.5t34 45.5t50.5 18.5h721q20 0 37.5 -13.5t32 -33t24 -41t13.5 -37.5q0 -33 -4 -72t-18.5 -73 t-42 -56.5t-75.5 -22.5h-649q-37 0 -64.5 15.5t-47 41t-28.5 57.5t-9 65z" />
<glyph unicode="7" horiz-adv-x="1400" d="M20 1280q0 -25 13.5 -46.5t33 -36.5t44 -23.5t49.5 -8.5h884q20 0 38 -14t32 -33.5t23.5 -42t13.5 -39.5q0 -35 -1 -83t-30 -79q-6 -8 -24.5 -28.5t-40 -42t-40 -41t-26.5 -27.5q-10 -20 -20.5 -45.5t-10.5 -48.5v-465q0 -43 18.5 -75.5t48.5 -53t67.5 -31t74.5 -10.5 q35 0 72 9.5t67.5 30t50 50t19.5 72.5v8v127t-1 193.5t-2 226.5t-2 226.5t-2 193.5t-1 127q-6 25 -22.5 47t-38 39.5t-48 27t-53.5 9.5l-1093 -7q-37 -2 -65 -36.5t-28 -69.5z" />
<glyph unicode="8" horiz-adv-x="1431" d="M20 176v465q0 23 10.5 48.5t20.5 45.5q8 8 26.5 27.5t40 41t40 42t24.5 28.5q2 2 6.5 8.5t9.5 13.5t9 14.5t4 9.5v303q0 20 11 47.5t28.5 53.5t40 43t47.5 17l704 9q20 0 49 -11.5t56 -29t45 -40t18 -42.5v-312q0 -6 4.5 -19t10.5 -27.5t11 -24.5t9 -13l131 -139l23 -47 l1 -58q1 -59 2 -140.5t3 -169t2 -144.5v-8q0 -31 -15.5 -60.5t-39 -52t-54 -36t-61.5 -13.5h-1047q-33 0 -63.5 14.5t-54 38t-38 54t-14.5 63.5zM244 410q0 -33 9 -65t28.5 -57.5t47 -41t64.5 -15.5h457q47 0 74.5 22.5t42 56.5t18.5 73t4 72q-4 16 -13 37.5t-23.5 41 t-33 33t-38.5 13.5h-527q-31 0 -51 -18.5t-33.5 -45.5t-19.5 -56.5t-6 -49.5zM438 989q0 -31 9.5 -62.5t28 -57t46 -42t64.5 -16.5h264q47 0 74.5 22.5t42 56.5t18.5 72.5t4 73.5q-4 16 -13 38t-23.5 41.5t-33 32.5t-38.5 13h-334q-29 0 -49.5 -18.5t-33.5 -45t-19.5 -56 t-6.5 -52.5z" />
<glyph unicode="9" horiz-adv-x="1431" d="M20 758q0 -31 14.5 -62.5t38 -56.5t54.5 -40t63 -15h691q18 0 36.5 -14.5t35 -34t26.5 -42t10 -38.5v-279q0 -43 18.5 -75.5t48 -53t67.5 -31t75 -10.5q35 0 72 9.5t67.5 30t50 50t19.5 72.5v8v127t-1 193.5t-2 226.5t-2 226.5t-2 193.5t-1 127q-14 51 -61.5 87 t-100.5 36l-1092 -9q-25 0 -48 -17t-39.5 -42t-27 -52.5t-10.5 -49.5v-465zM244 989q0 23 6 52.5t19.5 56t34 45t50.5 18.5h721q20 0 37.5 -13t32 -32.5t24 -41t13.5 -38.5q0 -35 -4 -73.5t-18.5 -72.5t-42 -56.5t-75.5 -22.5h-649q-37 0 -64.5 16.5t-47 42t-28.5 57 t-9 62.5z" />
<glyph unicode=":" horiz-adv-x="407" d="M20 119q0 -35 18.5 -56.5t46.5 -34t59.5 -17.5t58.5 -5q25 0 56.5 5t59 17.5t47 34t19.5 56.5q0 16 -9 34.5t-23.5 34t-33 25.5t-36.5 10h-162q-18 0 -36.5 -10t-32 -25.5t-23 -34t-9.5 -34.5zM20 1276q0 -35 18.5 -56.5t46.5 -33.5t59.5 -17.5t58.5 -5.5q25 0 56.5 5.5 t59 17.5t47 33.5t19.5 56.5q0 25 -14.5 46t-36 35.5t-47 23t-45.5 8.5q-27 0 -65 -2.5t-72.5 -13.5t-59.5 -33.5t-25 -63.5z" />
<glyph unicode=";" horiz-adv-x="524" d="M18 113q0 -31 16.5 -50.5t40 -31t51.5 -18.5t50 -13q25 0 42.5 -16.5t33.5 -36.5q23 -29 27 -77t10 -95t26.5 -81t75.5 -34q18 0 38 9t35 24.5t25.5 35t10.5 40.5v323q0 18 -12.5 42t-31 43.5t-40 33.5t-39.5 14h-264q-23 0 -40.5 -11t-29.5 -27.5t-18.5 -36t-6.5 -37.5z M113 1280q0 -35 19.5 -56.5t47 -33.5t59 -17.5t56.5 -5.5q27 0 58.5 5.5t59 17.5t46 33.5t18.5 56.5q0 25 -13 46.5t-34.5 35.5t-47.5 22.5t-48 8.5q-27 0 -65 -2t-72.5 -13.5t-59 -34t-24.5 -63.5z" />
<glyph unicode="&#x3c;" horiz-adv-x="788" d="M18 690q0 -6 1 -15t1 -11l621 -619q8 -10 19.5 -9t21.5 1q39 0 61.5 22.5t22.5 59.5v20q0 12 -10 23l-510 518v39l510 518q10 10 10 20v23q0 37 -22.5 59.5t-61.5 22.5q-10 0 -21.5 1t-19.5 -9l-612 -613q-10 -10 -11 -26v-25z" />
<glyph unicode="=" horiz-adv-x="1370" d="M20 508q0 -27 13.5 -47.5t33 -34.5t44 -22.5t49.5 -8.5h1046q25 0 49.5 8.5t45 22.5t34 34.5t13.5 47.5q0 35 -29 69.5t-66 34.5h-1140q-37 0 -65 -34.5t-28 -69.5zM20 895q0 -25 13.5 -46.5t33 -35.5t44 -22.5t49.5 -8.5h1046q25 0 49.5 8.5t45 22.5t34 35.5t13.5 46.5 q0 35 -29 69.5t-66 34.5h-1140q-37 0 -65 -34.5t-28 -69.5z" />
<glyph unicode="&#x3e;" horiz-adv-x="788" d="M18 111q0 -37 25 -55.5t59 -18.5q10 0 21.5 -1t21.5 9l611 612q10 10 10 19v22v23q0 10 -10 20l-611 613q-10 10 -21 9t-22 -1q-37 0 -59.5 -22.5t-22.5 -59.5q0 -10 -1 -21.5t10 -21.5l510 -518v-39l-510 -518q-10 -10 -11 -27v-24z" />
<glyph unicode="?" horiz-adv-x="1400" d="M20 1280q0 35 28 69.5t65 36.5l899 7q20 0 50 -8.5t44 -22.5l240 -240l22 -47l1 -14t3 -33.5t3 -40t1 -35.5v-10q0 -16 -9 -44t-21 -40l-240 -240q-25 -25 -57.5 -28.5t-67.5 -3.5q-33 0 -65.5 -3t-57.5 -26l-139 -133q-27 -23 -64 -27t-69 -4q-98 0 -153.5 55.5 t-55.5 155.5q0 53 16.5 97t61.5 79q8 6 25.5 17.5t21.5 11.5h510q4 0 24.5 7t30.5 11q33 14 50.5 38t24.5 51.5t8 58.5t1 61q-4 16 -13.5 39t-23.5 42.5t-31.5 33.5t-38.5 14h-884q-25 0 -49.5 8.5t-44 23.5t-33 36.5t-13.5 46.5zM408 119q0 35 27.5 69.5t66.5 34.5h170 q16 0 32.5 -9t31 -23.5t22.5 -32t8 -31.5q0 -37 -17.5 -59.5t-43 -37t-57.5 -19.5t-62 -5q-29 0 -59.5 5t-57.5 17.5t-44 34t-17 56.5z" />
<glyph unicode="@" d="M20 371v665q0 16 10.5 46t20.5 40l240 240l47 22l704 9q20 0 50 -8.5t45 -22.5l239 -240l23 -47v-557q0 -39 -35 -66.5t-70 -27.5q-31 0 -50 19.5t-46 19.5q-16 0 -31.5 -11.5t-34 -23.5t-41 -23.5t-49.5 -11.5h-270q-33 0 -63.5 14.5t-54 38t-38 54t-14.5 63.5v279 q0 18 11.5 45.5t30 53.5t40 43t41.5 17h317q14 0 34 7.5t36 19.5t28.5 27.5t12.5 31.5q0 23 -27.5 48.5t-52.5 25.5h-719q-31 0 -52 -19.5t-33.5 -47t-18.5 -58t-6 -51.5q0 -29 6 -58.5t26 -52.5q6 -8 24.5 -28.5t40 -42t40 -41t27.5 -27.5l26 -47v-317q0 -25 14.5 -50.5 t37 -46t49 -34t51.5 -13.5h696q16 0 33.5 -11t31 -27.5t21.5 -36t8 -33.5q0 -27 -13 -47.5t-32.5 -34.5t-44 -22.5t-49.5 -8.5h-852q-20 0 -50 8.5t-44 22.5l-240 239q-14 14 -22.5 44t-8.5 51zM825 698q0 -29 8.5 -59.5t24.5 -56t41 -42t59 -16.5q18 0 32 4t30 21l131 131 q16 16 20.5 31.5t4.5 36.5q0 20 -10.5 42.5t-27 41t-38 30.5t-41.5 12h-117q-4 0 -21.5 -9t-25.5 -15q-41 -31 -55.5 -67t-14.5 -85z" />
<glyph unicode="A" d="M20 131q0 -4 9.5 -22.5t13.5 -24.5q35 -47 79 -62.5t99 -15.5t99.5 15.5t78.5 62.5q2 4 8.5 15.5t12.5 24.5t10 25.5t4 18.5v311q0 12 11.5 29.5t29 33t34.5 27t30 11.5h528q18 0 38.5 -14.5t36 -35t26 -43t10.5 -38.5v-318q0 -16 11 -33.5t27.5 -31t35 -21.5t34.5 -8 q49 0 81 42t32 89v281q0 20 -8.5 47.5t-22.5 44.5l-131 139l-27 47v301q0 8 -4 21.5t-9 28t-11 26.5t-10 18l-242 240q-12 14 -43 22.5t-49 8.5l-318 -9l-47 -22l-239 -240l-27 -47v-317q0 -12 -12.5 -39t-22.5 -39q-8 -8 -26.5 -27.5t-40 -42t-40 -42t-26.5 -27.5l-23 -47 v-363zM438 920v139q0 14 11.5 31.5t27 33t32.5 26.5t30 11h333q31 0 51.5 -18.5t33 -45t18.5 -56t6 -52.5q0 -29 -8 -60.5t-25.5 -58t-44 -43t-61.5 -16.5h-264q-18 0 -43 9t-46.5 23.5t-36 34t-14.5 42.5z" />
<glyph unicode="B" d="M20 131q0 -27 17.5 -49.5t42 -39.5t52.5 -26.5t50 -9.5h852q20 0 50 8.5t44 22.5l240 239q10 10 20.5 40t10.5 46v279q0 20 -8.5 49t-22.5 45l-131 139q-25 25 -28 58q-2 25 -2 50v16v14q0 27 -3 53q-4 33 -28 57l-242 240q-14 14 -44 22.5t-48 8.5l-705 -9 q-16 0 -35.5 -12t-38 -29.5t-31 -38t-12.5 -36.5v-1137zM246 920v139q0 14 10 31.5t25.5 33t33 26.5t31.5 11h526q31 0 51.5 -18.5t33 -45t18.5 -56t6 -52.5q0 -29 -8 -60.5t-25.5 -58t-44 -43t-61.5 -16.5h-457q-18 0 -43 9t-46.5 23.5t-35.5 34t-14 42.5zM438 340v139 q0 12 11.5 29.5t27 33t32.5 27t30 11.5h528q29 0 49.5 -18.5t33.5 -45.5t19.5 -56.5t6.5 -49.5q0 -31 -8.5 -62t-26 -57.5t-44 -43t-63.5 -16.5h-456q-18 0 -43 8.5t-46.5 24t-36 34.5t-14.5 42z" />
<glyph unicode="C" horiz-adv-x="1392" d="M20 324v751l23 47l242 240l45 22l706 9q18 0 48 -8.5t44 -22.5l232 -232q10 -10 10 -22v-21q0 -37 -22.5 -59t-61.5 -22q-10 0 -21.5 -1t-19.5 9q-8 6 -26.5 23.5t-40 38t-40 37.5t-26.5 24q-6 6 -20.5 15t-24.5 9h-721q-14 0 -31.5 -11t-33 -26.5t-25.5 -33t-10 -31.5 v-139l22 -46l131 -139q12 -12 23.5 -45t11.5 -49v-301q0 -20 15.5 -39.5t38 -35t47 -25t43.5 -9.5h458q16 0 40 9.5t36 21.5q8 6 26.5 23.5t40 38t40 38t26.5 23.5q8 10 19.5 9t21.5 -1q39 0 61.5 -21.5t22.5 -60.5v-22q0 -8 -10 -19l-232 -233q-14 -14 -43.5 -22.5 t-48.5 -8.5h-659q-18 0 -48 8.5t-44 22.5l-242 239z" />
<glyph unicode="D" d="M20 131v1137q0 16 12.5 36.5t31 38t38 29.5t35.5 12l897 9q20 0 50 -8.5t44 -22.5l240 -240q14 -14 22.5 -43.5t8.5 -50.5v-666q0 -16 -10.5 -45.5t-20.5 -40.5l-240 -239q-14 -14 -43.5 -22.5t-50.5 -8.5h-852q-23 0 -50.5 9.5t-52 26.5t-42 39.5t-17.5 49.5zM246 920 l22 -46l131 -139q12 -12 23.5 -45t11.5 -49v-301q0 -20 15.5 -39.5t38 -35t47 -25t43.5 -9.5h456q25 0 50.5 12.5t46 32t33 45t12.5 50.5v657q0 18 -9.5 42t-25 43.5t-35 33.5t-39.5 14h-721q-14 0 -31.5 -11t-33 -26.5t-25.5 -33t-10 -31.5v-139z" />
<glyph unicode="E" horiz-adv-x="1392" d="M20 324v751l23 47l242 240l45 22l899 9q25 0 49.5 -8.5t44.5 -22.5t33.5 -34.5t13.5 -47.5q0 -25 -13.5 -46.5t-33.5 -36.5t-45 -23.5t-49 -8.5h-883q-12 0 -29.5 -11t-33 -28.5t-26.5 -36t-11 -30.5v-139q0 -23 14 -42.5t35.5 -35t46.5 -24.5t43 -9h891q16 0 32.5 -11.5 t31 -27.5t22.5 -35.5t8 -34.5q0 -25 -13.5 -46t-33.5 -36.5t-45 -24.5t-49 -9h-690q-12 0 -29.5 -11.5t-33 -29t-27 -34.5t-11.5 -30v-139q0 -23 15.5 -42t37 -35.5t45 -26t42.5 -9.5h698q16 0 32.5 -11t31 -27.5t22.5 -36t8 -33.5q0 -27 -13.5 -47.5t-33.5 -34.5t-45 -22.5 t-49 -8.5h-852q-18 0 -48 8.5t-44 22.5l-242 239z" />
<glyph unicode="F" horiz-adv-x="1392" d="M20 131q0 -4 9.5 -22.5t13.5 -24.5q35 -47 79 -62.5t99 -15.5t99.5 15.5t78.5 62.5q2 4 8.5 15.5t12.5 24.5t10 25.5t4 18.5v311q0 10 12.5 27.5t30 35t34.5 30t28 12.5h690q25 0 49.5 9t44.5 24.5t33.5 37t13.5 45.5q0 14 -8 34t-22.5 36t-31 27.5t-32.5 11.5h-891 q-18 0 -43 9t-46.5 24.5t-35.5 35t-14 42.5v139q0 12 11 30.5t26.5 36t33 28.5t29.5 11h883q25 0 49.5 8.5t44.5 23.5t33.5 36.5t13.5 46.5q0 27 -13.5 47.5t-33.5 34.5t-45 22.5t-49 8.5l-899 -9l-45 -22l-242 -240l-23 -47v-944z" />
<glyph unicode="G" d="M20 324v751l23 47l242 240l45 22l899 9q25 0 49.5 -8.5t43.5 -22.5t32.5 -35.5t13.5 -46.5t-13.5 -46.5t-32.5 -36.5t-44 -24.5t-49 -9.5h-883q-12 0 -29.5 -11t-33 -27.5t-26.5 -35t-11 -30.5v-139l22 -46l131 -139q12 -12 23.5 -45t11.5 -49v-301q0 -20 15.5 -39.5 t38 -35t47 -25t43.5 -9.5h456q37 0 63.5 16.5t44 43t26 57.5t8.5 62q0 63 -17.5 96t-47.5 49t-66.5 20.5t-75.5 11.5t-77 21.5t-67 48.5q-8 8 -8 19v22q0 35 27.5 71t66.5 36h365q25 0 47.5 -17.5t39.5 -43t26.5 -54t9.5 -49.5v-270q0 -20 -8.5 -50t-22.5 -45l-240 -239 q-14 -14 -43.5 -22.5t-50.5 -8.5h-657q-18 0 -48 8.5t-44 22.5l-242 239z" />
<glyph unicode="H" d="M20 131q0 -4 9.5 -22.5t13.5 -24.5q35 -47 79 -62.5t99 -15.5t99.5 15.5t78.5 62.5q2 4 8.5 15.5t12.5 24.5t10 25.5t4 18.5v311q0 12 11.5 29.5t29 33t34.5 27t30 11.5h528q18 0 38.5 -14.5t36 -35t26 -43t10.5 -38.5v-318q0 -16 11 -33.5t27.5 -31t35 -21.5t34.5 -8 q49 0 81 42t32 89v1055q0 25 -8.5 49t-22.5 43.5t-34.5 33t-47.5 13.5q-16 0 -34.5 -8t-35 -21.5t-27.5 -31t-11 -33.5v-310q0 -25 -12.5 -51t-33 -47.5t-46 -35t-52.5 -13.5h-649q-18 0 -43 10t-47.5 25.5t-37.5 35t-15 38.5v303q0 23 -9.5 47t-24.5 44.5t-36.5 34 t-46.5 13.5q-35 0 -70 -27.5t-35 -66.5v-1137z" />
<glyph unicode="I" horiz-adv-x="454" d="M20 145q0 -37 21.5 -63.5t52.5 -44t67 -24.5t64 -7q29 0 65 7t66.5 24.5t52 44.5t21.5 63v527q0 2 -2 10t-6 12q-23 57 -68 100.5t-86 86.5q-6 4 -16 24.5t-10 28.5v317q0 18 -10.5 38t-28 35t-37 25.5t-37.5 10.5t-37.5 -9.5t-35 -24.5t-26 -34.5t-10.5 -40.5v-1106z " />
<glyph unicode="J" d="M20 324l23 -48l242 -239q14 -14 43.5 -22.5t48.5 -8.5h657q20 0 50 8.5t44 22.5l240 239q10 10 20.5 40t10.5 46v279q0 20 -8.5 49t-22.5 45l-131 139l-27 46v303q0 23 -9 47t-24.5 44.5t-37 34t-45.5 13.5q-16 0 -35 -8t-35 -21.5t-27.5 -31t-11.5 -33.5v-889 q0 -27 -12 -52.5t-32.5 -47t-46.5 -35t-52 -13.5h-457q-57 0 -86 27t-42 65.5t-17 86t-14.5 86.5t-32 65.5t-68.5 26.5q-35 0 -70 -28t-35 -66v-170z" />
<glyph unicode="K" d="M20 131q0 -4 9.5 -22.5t13.5 -24.5q35 -47 79 -62.5t99 -15.5t99.5 15.5t78.5 62.5q2 4 8.5 15.5t12.5 24.5t10 25.5t4 18.5v311q0 12 11.5 29.5t29 33t34.5 27t30 11.5h528q18 0 38.5 -14.5t36 -35t26 -43t10.5 -38.5v-318q0 -16 11 -33.5t27.5 -31t35 -21.5t34.5 -8 q49 0 81 42t32 89v281q0 18 -8.5 47.5t-22.5 44.5l-240 239l-47 27h-309l-16 12l411 418q8 8 9 20v23q0 37 -23 59.5t-59 22.5q-10 0 -21.5 1t-21.5 -9l-519 -512q-23 -20 -53 -25.5t-59 -5.5q-45 0 -84 12.5t-68 50.5q-6 8 -16 26t-10 20v303q0 23 -9.5 47t-24.5 44.5 t-36.5 34t-46.5 13.5q-35 0 -70 -27.5t-35 -66.5v-1137z" />
<glyph unicode="L" horiz-adv-x="1392" d="M20 324l23 -48l242 -239q14 -14 43.5 -22.5t48.5 -8.5h852q25 0 49.5 8.5t44.5 22.5t33.5 34.5t13.5 47.5q0 14 -8 33.5t-22.5 36t-31 27.5t-32.5 11h-698q-16 0 -40 10.5t-47.5 27t-40 37t-16.5 38.5v301q0 16 -11 49t-24 45l-131 139l-26 46v303q0 25 -9.5 49 t-24.5 43.5t-36.5 33t-46.5 13.5q-35 0 -70 -27.5t-35 -64.5v-946z" />
<glyph unicode="M" d="M20 131v944l23 47l242 240l45 22l704 9q20 0 50 -8.5t44 -22.5l240 -240q14 -14 22.5 -43.5t8.5 -50.5v-852q0 -25 -8.5 -49.5t-22.5 -44t-34.5 -32.5t-47.5 -13q-16 0 -34.5 8t-35 21.5t-27.5 31t-11 33.5v897q0 16 -10.5 40t-26 44.5t-36 34.5t-38.5 14h-139 q-12 0 -30.5 -11t-36 -26.5t-29 -34t-11.5 -30.5v-883q0 -23 -9 -47.5t-24.5 -45t-36 -33.5t-44.5 -13q-16 0 -35 8t-35 21.5t-27.5 31t-11.5 33.5v897q0 16 -10 40t-26.5 44.5t-37 34.5t-39.5 14h-139q-14 0 -31.5 -11t-33 -26.5t-25.5 -33t-10 -31.5v-139l22 -46l131 -139 q14 -16 22.5 -44.5t8.5 -49.5v-465q0 -43 -18.5 -75.5t-48 -53t-66.5 -31t-76 -10.5q-55 0 -99 15.5t-79 62.5q-4 6 -13.5 24.5t-9.5 22.5z" />
<glyph unicode="N" d="M20 131v944l23 47l242 240l45 22l704 9q20 0 50 -8.5t44 -22.5l240 -240q14 -14 22.5 -43.5t8.5 -50.5v-852q0 -25 -8.5 -49.5t-22.5 -44t-34.5 -32.5t-47.5 -13q-16 0 -34.5 8t-35 21.5t-27.5 31t-11 33.5v897q0 16 -10.5 40t-26 44.5t-36 34.5t-38.5 14h-721 q-14 0 -31.5 -11t-33 -26.5t-25.5 -33t-10 -31.5v-139l22 -46l131 -139q14 -16 22.5 -44.5t8.5 -49.5v-465q0 -43 -18.5 -75.5t-48 -53t-66.5 -31t-76 -10.5q-55 0 -99 15.5t-79 62.5q-4 6 -13.5 24.5t-9.5 22.5z" />
<glyph unicode="O" d="M20 324v751l23 47l242 240l45 22l704 9q20 0 50 -8.5t44 -22.5l240 -240q14 -14 22.5 -43.5t8.5 -50.5v-657q0 -20 -8.5 -50t-22.5 -45l-240 -239q-14 -14 -43.5 -22.5t-50.5 -8.5h-657q-18 0 -48 8.5t-44 22.5l-242 239zM246 340q0 -23 14 -42t35.5 -34.5t46.5 -24 t43 -8.5h649q27 0 52.5 13.5t46 34t32 47t11.5 53.5v262q0 18 -10.5 41t-22.5 37q-6 8 -24.5 27.5t-40 42t-40 42t-26.5 27.5l-23 47q0 6 -1 23.5t-3 38t-3 38t-1 23.5q-2 18 -11 42t-23.5 43.5t-34 33.5t-40.5 14h-526q-14 0 -31.5 -11t-33 -26.5t-25.5 -33t-10 -31.5v-719 z" />
<glyph unicode="P" d="M20 131v1137q0 16 12.5 36.5t31 38t38 29.5t35.5 12l897 9q20 0 50 -8.5t44 -22.5l240 -240q25 -25 28 -62.5t3 -70.5q0 -31 -3 -68.5t-28 -62.5l-240 -240q-12 -12 -44.5 -23t-49.5 -11h-495q-10 0 -27.5 -12.5t-35 -30t-30 -35t-12.5 -27.5v-303q0 -43 -19.5 -74.5 t-50 -53t-68.5 -32t-75 -10.5q-55 0 -99 15.5t-79 62.5q-4 6 -13.5 24.5t-9.5 22.5zM246 920q0 -23 14 -42.5t35.5 -35t46.5 -23.5t43 -8h649q37 0 63.5 17.5t44 44t26 58t8.5 62.5q0 23 -6.5 51.5t-19.5 55t-33.5 44t-49.5 17.5h-721q-14 0 -31.5 -11t-33 -26.5t-25.5 -33 t-10 -31.5v-139z" />
<glyph unicode="Q" d="M20 324v751l23 47l242 240l45 22l704 9q20 0 50 -8.5t44 -22.5l240 -240q14 -14 22.5 -43.5t8.5 -50.5v-565q0 -25 -11.5 -46.5t-23.5 -41t-23.5 -35.5t-11.5 -29q0 -14 11.5 -29.5t23.5 -34t23.5 -39t11.5 -44.5q0 -53 -25.5 -84t-64.5 -47.5t-85 -21.5t-85 -5h-78 q-27 0 -72 17q-23 10 -44 32.5t-46 22.5q-12 0 -27.5 -11.5t-35 -24.5t-41 -24.5t-45.5 -11.5h-373q-18 0 -48 8.5t-44 22.5l-242 239zM246 340q0 -23 14 -42t35.5 -34.5t46.5 -24t43 -8.5h262q18 0 42 9.5t36 21.5q8 6 28.5 24.5t42 40t41 40t27.5 26.5l47 23q39 2 85 6 t86 19.5t67 46t27 83.5v457q0 18 -9.5 42t-25 43.5t-35 33.5t-39.5 14h-721q-14 0 -31.5 -11t-33 -26.5t-25.5 -33t-10 -31.5v-719z" />
<glyph unicode="R" d="M20 131q0 -4 9.5 -22.5t13.5 -24.5q35 -47 79 -62.5t99 -15.5q37 0 75 10.5t68.5 32t50 53t19.5 74.5v303q0 12 11.5 29.5t29 33t34.5 27t30 11.5h528q18 0 38.5 -14.5t36 -35t26 -43t10.5 -38.5v-318q0 -16 11 -33.5t27.5 -31t35 -21.5t34.5 -8q49 0 81 42t32 89v281 q0 20 -8.5 47.5t-22.5 44.5l-131 139l-27 47v301q0 8 -4 21.5t-9 28t-11 26.5t-10 18l-242 240q-14 14 -44 22.5t-48 8.5l-705 -9q-16 0 -35.5 -12t-38 -29.5t-31 -38t-12.5 -36.5v-1137zM246 920v139q0 14 10 31.5t25.5 33t33 26.5t31.5 11h526q29 0 49.5 -17.5t34 -44 t19.5 -55t6 -51.5q0 -31 -8 -62.5t-25.5 -58t-43 -44t-62.5 -17.5h-457q-18 0 -43 8t-46.5 23.5t-35.5 35t-14 42.5z" />
<glyph unicode="S" d="M20 711v364l23 47l242 240l45 22q4 0 53 1t134 2.5t178 2.5t185.5 2t153.5 1h6q18 0 47 -9.5t41 -21.5l232 -234q10 -8 9 -19t-1 -22q0 -81 -80 -81h-2q-10 0 -21.5 -1t-19.5 9q-8 6 -26.5 23.5t-40 38t-40 37.5t-26.5 24q-6 6 -20.5 15t-24.5 9h-721q-14 0 -31.5 -11 t-33 -26.5t-25.5 -33t-10 -31.5v-139q0 -20 15 -41t36.5 -36.5t45.5 -25.5t42 -10h696l47 -27l240 -239q25 -25 28 -63t3 -68q0 -33 -3 -71t-28 -63l-240 -239q-14 -14 -43.5 -22.5t-50.5 -8.5h-657q-18 0 -48 8.5t-44 22.5l-234 233q-8 8 -8 19v22q0 39 22.5 60.5 t59.5 21.5q10 0 22.5 1t20.5 -9l24.5 -24.5t40 -38t40 -37t26.5 -23.5q16 -14 41 -22.5t45 -8.5h457q37 0 62.5 17.5t43 43t25.5 58.5t8 64q0 20 -7 49t-21.5 55.5t-34 46t-46.5 19.5h-690q-20 0 -48 11t-53.5 28.5t-43 40t-17.5 47.5z" />
<glyph unicode="T" horiz-adv-x="1370" d="M20 1282q0 -25 13.5 -46.5t33 -36.5t44 -24.5t49.5 -9.5h303q18 0 37.5 -15t37 -36.5t27.5 -45.5t10 -38v-899q0 -4 10.5 -21.5t16.5 -25.5q37 -47 79 -62.5t99 -15.5q37 0 75 10.5t67.5 31t48 53t18.5 75.5v465q0 20 -8 49t-23 45l-131 139l-24 48v139q0 12 11 29.5 t26.5 35t33 28.5t29.5 11h303q25 0 49.5 9.5t45 24.5t34 36.5t13.5 46.5q0 27 -13.5 47.5t-34 34.5t-45 21.5t-49.5 7.5l-1093 -7q-37 0 -65 -34.5t-28 -69.5z" />
<glyph unicode="U" d="M20 324v944q0 39 35 66.5t70 27.5q25 0 46.5 -13.5t36.5 -34t24.5 -45t9.5 -46.5v-303l26 -46l131 -139q12 -12 23.5 -45t11.5 -49v-301q0 -20 15.5 -39.5t38 -35t47 -25t43.5 -9.5h456q27 0 52.5 13.5t46 35t33 47t12.5 52.5v889q0 16 11 33.5t27.5 31t35 21.5t34.5 8 q27 0 47.5 -13.5t34.5 -33t22.5 -44t8.5 -48.5v-852q0 -20 -8.5 -50t-22.5 -45l-240 -239q-14 -14 -43.5 -22.5t-50.5 -8.5h-657q-18 0 -48 8.5t-44 22.5l-242 239z" />
<glyph unicode="V" d="M20 711v557q0 18 12.5 37.5t30 36t38 27.5t36.5 15q6 0 23.5 1t38 3.5t38 3.5t23.5 1q33 0 63.5 -14.5t55 -38t40 -54.5t15.5 -63v-883q0 -20 15.5 -39.5t38 -35t47 -25t43.5 -9.5h264q51 0 79.5 28t43 69t18.5 86t6 80l23 47q8 8 26.5 27.5t40 42t40 42t24.5 27.5 q14 16 24.5 43t10.5 43v502q0 16 11 33.5t27.5 31t35 21.5t34.5 8q27 0 47.5 -13.5t34.5 -33t22.5 -44t8.5 -48.5v-465q0 -20 -8.5 -49t-22.5 -45l-131 -140q-25 -26 -28 -58q-2 -24 -2 -49v-17v-13q0 -27 -3 -53q-4 -33 -28 -58l-242 -239q-14 -14 -44 -22.5t-48 -8.5h-271 q-20 0 -49.5 8.5t-44.5 22.5l-239 239l-23 48v45q0 39 -8 83t-31 72q-10 8 -28.5 27.5t-39 42t-39 42t-26.5 28.5z" />
<glyph unicode="W" d="M20 324v944q0 39 35 66.5t70 27.5q25 0 46.5 -13.5t36.5 -34t24.5 -45t9.5 -46.5v-303l26 -46l131 -139q12 -12 23.5 -45t11.5 -49v-301q0 -12 8.5 -25.5t20.5 -26t25.5 -20.5t23.5 -8q18 0 33.5 13.5t27 32t18.5 39t7 34.5v889q0 16 11.5 33.5t27.5 31t34.5 21.5t35.5 8 q25 0 45 -13.5t35.5 -34t24.5 -45t9 -46.5v-883q0 -4 11.5 -21.5t17.5 -25.5q29 -39 66.5 -51.5t84.5 -12.5q31 0 63 10.5t56.5 29t41 46t16.5 64.5v889q0 16 11 33.5t27.5 31t35 21.5t34.5 8q27 0 47.5 -13.5t34.5 -33t22.5 -44t8.5 -48.5v-852q0 -20 -8.5 -50t-22.5 -45 l-240 -239q-14 -14 -43.5 -22.5t-50.5 -8.5h-657q-18 0 -48 8.5t-44 22.5l-242 239z" />
<glyph unicode="X" d="M20 131v170l23 45l326 334v39l-326 334l-23 45v170q0 39 35 66.5t70 27.5q39 0 61.5 -17.5t32.5 -45t13.5 -61.5t6.5 -66.5t8 -60.5t21 -44l226 -225q14 -14 39.5 -22.5t44.5 -8.5h264q16 0 40.5 10t37.5 21l223 225q25 25 30 56.5t5 64.5t3 65.5t25 61.5q6 10 23.5 27.5 t21.5 19.5h27q37 0 59.5 -16.5t37 -43t19.5 -57.5t5 -61q0 -29 -4 -69t-27 -62l-326 -334v-39l326 -334q25 -25 28 -62.5t3 -68.5q0 -29 -5 -59.5t-17.5 -57t-35 -44t-55.5 -17.5q-41 0 -66.5 27.5t-37.5 66.5q0 6 -1 23.5t-2 38t-2 38t-1 23.5q-4 18 -11.5 40.5t-21.5 37.5 l-223 225q-6 4 -21.5 13.5t-26.5 9.5h-333q-12 0 -29.5 -11.5t-35 -27t-29 -32.5t-11.5 -30v-303q0 -43 -19.5 -74.5t-50 -53t-68.5 -32t-75 -10.5q-55 0 -99 15.5t-79 62.5q-4 6 -13.5 24.5t-9.5 22.5z" />
<glyph unicode="Y" horiz-adv-x="1236" d="M20 1223v8q0 20 8.5 43.5t23 43t32.5 32t41 12.5q53 0 87 -43t34 -96v-281q0 -10 10 -34.5t20 -35.5l224 -223q23 -23 57.5 -28t63.5 -5t59.5 5.5t52.5 27.5l223 223q12 10 22.5 40t10.5 46v279q0 20 8.5 41.5t22.5 40t32.5 31t39.5 12.5q55 0 87.5 -43t32.5 -96v-273 q0 -16 -9 -48t-21 -44l-332 -340q-4 -4 -12.5 -19.5t-8.5 -19.5v-303q0 -43 -20.5 -75.5t-51 -53t-69.5 -31t-76 -10.5q-55 0 -97 15.5t-77 62.5q-6 8 -16 25.5t-10 19.5v311q0 16 -15.5 45t-19.5 39l-326 334l-22 47l-1 36t-2 87t-3.5 104.5t-2.5 90.5z" />
<glyph unicode="Z" horiz-adv-x="1431" d="M20 1223q0 -6 1.5 -23.5t3.5 -38t3 -38t1 -25.5q10 -37 36.5 -64.5t67.5 -27.5q10 0 21.5 -1t21.5 9l24.5 24.5t40 38t40 36.5t26.5 24q6 6 21.5 15t25.5 9h697l-992 -999q-10 -10 -9 -25.5t1 -25.5q0 -23 12.5 -42.5t32 -32.5t42 -21.5t44.5 -8.5h1055q33 0 63.5 14.5 t54 38t38 54t14.5 63.5v273q0 53 -33 96t-88 43h-26q-4 -2 -21.5 -19.5t-24.5 -27.5q-25 -33 -28.5 -71t-5.5 -75t-12.5 -71.5t-47.5 -61.5q-10 -6 -35.5 -18.5t-42.5 -12.5h-649l-16 7l991 1001q10 8 9 19.5t-1 21.5q0 27 -13 47.5t-32.5 34.5t-44 22.5t-49.5 8.5l-1092 -9 q-25 0 -47 -16t-39.5 -39.5t-28 -50.5t-10.5 -47v-8z" />
<glyph unicode="[" horiz-adv-x="716" d="M20 145q0 -29 16.5 -53t40 -43.5t52.5 -31t53 -11.5h371q25 0 49.5 8.5t45 22.5t33.5 34.5t13 47.5q0 43 -26.5 64.5t-64.5 37t-78 31.5t-64 47q-6 8 -16.5 25.5t-10.5 21.5v324q0 2 -10 23.5t-16 31.5q-4 4 -9.5 12t-7.5 11q-6 8 -23.5 26.5t-37 40t-38 39.5t-24.5 25 l-24 47v123q0 37 34.5 68.5t65.5 39.5q12 0 42 1t63.5 3t62.5 3t41 1q25 2 49.5 10.5t45 21.5t33.5 33.5t13 47.5t-13 47.5t-33.5 34.5t-45 21.5t-49.5 7.5l-410 -7q-18 0 -39.5 -14t-40 -33.5t-31 -43t-12.5 -42.5v-1104z" />
<glyph unicode="\" horiz-adv-x="1370" d="M18 1272q0 -6 1 -15.5t1 -11.5l1203 -1200q8 -10 19 -9t22 1q39 0 61.5 22.5t22.5 59.5v20q0 12 -11 23l-1192 1192q-10 10 -22 10h-21q-43 0 -63.5 -25.5t-20.5 -66.5z" />
<glyph unicode="]" horiz-adv-x="716" d="M20 119q0 -27 13.5 -47.5t33 -34.5t44 -22.5t49.5 -8.5h370q25 0 53.5 11.5t52 31t40 44t16.5 52.5v525q0 2 -2 11t-6 13q-25 59 -72 104.5t-90 88.5l-18 39v323q0 25 -17.5 50.5t-44 45t-55.5 32t-53 12.5h-4q-12 0 -43 -1.5t-66 -2.5t-65.5 -2t-42.5 -1 q-37 -12 -65 -37.5t-28 -66.5q0 -45 27 -66.5t63.5 -37t75.5 -31t66 -47.5q4 -4 13 -25.5t9 -28.5v-688q0 -2 -2 -11t-4 -13q-23 -49 -63.5 -69.5t-81.5 -36t-72 -36t-31 -69.5z" />
<glyph unicode="^" horiz-adv-x="980" d="M19.5 916.5q0.5 -11.5 0.5 -21.5q0 -37 23 -59.5t59 -22.5q10 0 21.5 -1t19.5 9l326 318h39l326 -318q8 -10 20 -9t23 1q37 0 59 22.5t22 59.5v20q0 10 -10 21l-418 420q-8 8 -20 8h-21h-22q-12 0 -21 -8l-417 -420q-10 -8 -9.5 -19.5z" />
<glyph unicode="`" horiz-adv-x="454" d="M20 1114v139q0 10 10.5 31l12.5 25q18 31 43 48t52.5 25.5t59 9.5t66.5 1q25 0 54.5 -11.5t54 -30t41 -44t16.5 -54.5v-424q0 -20 -9 -40.5t-24.5 -38t-35 -27.5t-39.5 -10q-39 0 -59.5 20.5t-32 49t-19 60t-21.5 56.5q-43 43 -90 88t-71 105q-2 4 -5 13z" />
<glyph unicode="a" horiz-adv-x="1089" d="M20 137q0 -68 49.5 -99.5t108.5 -31.5q27 0 55.5 7t53 22.5t40 39t15.5 54.5v217q0 18 10 34.5t25.5 30t34 21.5t34.5 8h332q18 0 38 -9t36 -22.5t27.5 -32t11.5 -36.5v-225q0 -33 28.5 -59.5t57.5 -26.5t46 14t28 37.5t13.5 51.5t2.5 54v60v18q0 14 -1 28.5t-1 26.5v21 q-6 33 -29.5 64.5t-48 59.5t-45 52.5t-20.5 46.5v225q0 8 -13.5 35t-21.5 35l-162 162q-6 6 -34.5 18.5t-43.5 12.5h-201q-16 0 -45.5 -10.5t-40.5 -20.5l-161 -162q-4 -4 -10.5 -14t-11.5 -21.5t-9 -21.5t-4 -13v-225q0 -29 -22.5 -53.5t-49 -50t-49.5 -53t-23 -60.5v-209z M344 741q0 20 4 44t15.5 43.5t29 31.5t45.5 12h209q25 0 43.5 -12t29.5 -30.5t16 -41t5 -43.5q0 -49 -26.5 -88t-81.5 -39h-187q-53 0 -77.5 39t-24.5 84z" />
<glyph unicode="b" horiz-adv-x="1089" d="M20 137q0 -45 26 -77t67 -46q6 -2 20 -5t19 -3h634q20 0 49 11.5t46 27.5l145 148q16 16 27.5 46.5t11.5 53.5v192q0 33 -16.5 58.5t-38 48l-43 45t-33.5 51.5q-8 18 -10 41t-5.5 46.5t-9.5 45t-22 37.5l-162 162q-6 6 -34.5 18.5t-43.5 12.5h-495q-49 0 -90.5 -36 t-41.5 -87v-791zM199 745q0 20 5 43t16 41.5t28.5 30.5t42.5 12h356q25 0 43.5 -12t29.5 -30.5t16 -41t5 -43.5q0 -49 -26.5 -88t-81.5 -39h-326q-55 0 -81.5 40t-26.5 87zM344 307q0 47 23.5 90t78.5 43h332q57 0 84 -43t27 -90q0 -18 -6 -39.5t-17.5 -40t-29 -31 t-41.5 -12.5h-357q-25 0 -43 12.5t-29.5 31t-16.5 40t-5 39.5z" />
<glyph unicode="c" horiz-adv-x="1067" d="M20 285q0 -16 10.5 -45t20.5 -39l156 -156q14 -14 39.5 -26.5t44.5 -12.5h495q20 0 49 11.5t46 27.5l147 148q10 10 13 21t3 24q0 63 -63 63q-31 0 -53.5 -18.5t-43 -40t-44 -40t-54.5 -18.5h-348q-12 0 -28.5 8.5t-32 20.5t-25.5 27.5t-10 29.5v224q0 35 -22.5 62.5 t-49 55t-49 58t-22.5 73.5q0 20 5 43t15 42.5t28.5 32.5t43.5 13h495q31 0 54.5 -18t44 -39.5t43 -40t53.5 -18.5q27 0 44 13t17 44q0 10 -3 25.5t-11 25.5l-147 148q-16 14 -45 26.5t-50 12.5h-487q-16 0 -45 -11.5t-39 -21.5l-156 -154q-14 -14 -26.5 -39.5t-12.5 -46.5 v-495z" />
<glyph unicode="d" horiz-adv-x="1089" d="M20 137q0 -45 26 -77t67 -46q6 -2 20 -5t19 -3h634q20 0 49 11.5t46 27.5l145 148q16 16 27.5 46.5t11.5 53.5v479q0 20 -11.5 49t-27.5 45l-145 146q-16 16 -45 27.5t-50 11.5h-634q-23 0 -46.5 -10.5t-42 -27t-31 -39t-12.5 -46.5v-791zM199 743q0 20 5 43t15 42.5 t28.5 31.5t43.5 12h504q37 0 64.5 -32.5t27.5 -67.5v-496q0 -31 -31 -61.5t-61 -30.5h-357q-12 0 -28.5 8.5t-32 20.5t-25.5 27.5t-10 29.5v224q0 35 -22.5 62.5t-49 55t-49 58t-22.5 73.5z" />
<glyph unicode="e" horiz-adv-x="1067" d="M20 285q0 -16 10.5 -45t20.5 -39l156 -156q14 -14 39.5 -26.5t44.5 -12.5h643q37 0 73.5 23.5t36.5 60.5q0 31 -25.5 60.5t-60.5 29.5h-520q-2 0 -22.5 10.5t-30.5 16.5q-29 16 -34 45t-5 55q0 20 5 45t17.5 45.5t31 33.5t46.5 13h519q29 0 54 29t25 55q0 27 -25.5 56.5 t-53.5 29.5h-658q-55 0 -81.5 42t-26.5 89q0 27 6 58t33 47q10 6 30.5 16.5t22.5 10.5h667q31 0 58.5 28.5t27.5 57.5q0 39 -36.5 64.5t-73.5 25.5h-635q-16 0 -45 -11.5t-39 -21.5l-156 -154q-14 -14 -26.5 -39.5t-12.5 -46.5v-495z" />
<glyph unicode="f" horiz-adv-x="1067" d="M20 137q0 -68 50.5 -99.5t109.5 -31.5q25 0 53.5 7t53 22.5t40 39t15.5 56.5v215q0 16 10 33.5t26.5 32t34 23.5t33.5 9h519q29 0 54 29t25 55q0 27 -25.5 56.5t-53.5 29.5h-658q-55 0 -81.5 42t-26.5 89q0 27 6 58t33 47q10 6 30.5 16.5t22.5 10.5h667q31 0 58.5 28.5 t27.5 57.5q0 39 -36.5 64.5t-73.5 25.5h-635q-16 0 -45 -11.5t-39 -21.5l-156 -154q-14 -14 -26.5 -39.5t-12.5 -46.5v-643z" />
<glyph unicode="g" horiz-adv-x="1089" d="M20 285q0 -16 10.5 -45t20.5 -41l156 -154q16 -16 42.5 -27.5t49.5 -11.5h487q20 0 49 11.5t46 27.5l145 148q16 16 27.5 46.5t11.5 53.5v192q0 18 -8 40t-22.5 40.5t-33 31.5t-36.5 13h-263q-31 0 -55 -26.5t-24 -55.5q0 -35 19.5 -50t49 -23.5t64.5 -13.5t64.5 -17 t49 -39t19.5 -78q0 -18 -6 -39.5t-17.5 -40t-29 -31t-41.5 -12.5h-357q-12 0 -28.5 8.5t-32 20.5t-25.5 27.5t-10 29.5v224q0 35 -22.5 62.5t-49 55t-49 58t-22.5 73.5q0 27 6 59t33 48q10 6 30.5 16.5t22.5 10.5h665q33 0 59.5 27.5t26.5 58.5q0 39 -35.5 63.5t-72.5 24.5 h-635q-16 0 -45 -10.5t-41 -20.5l-154 -154q-14 -14 -26.5 -39.5t-12.5 -46.5v-495z" />
<glyph unicode="h" horiz-adv-x="1089" d="M20 137q0 -33 14.5 -57.5t37 -40.5t50.5 -24.5t56 -8.5q27 0 55.5 7t53 22.5t40 39t15.5 54.5v217q0 18 10 34.5t26.5 30t34 21.5t33.5 8h332q18 0 38 -9t36 -22.5t27.5 -32t11.5 -36.5v-225q0 -33 28.5 -59.5t57.5 -26.5q43 0 65.5 38.5t22.5 77.5v775q0 37 -24.5 72.5 t-63.5 35.5q-31 0 -58.5 -26.5t-27.5 -59.5v-223q0 -41 -38 -71t-75 -30h-471q-16 0 -36.5 7.5t-37 20.5t-27.5 29.5t-11 35.5v231q0 33 -27.5 59.5t-58.5 26.5q-37 0 -63 -32.5t-26 -67.5v-791z" />
<glyph unicode="i" horiz-adv-x="360" d="M20 129q0 -33 14.5 -55.5t38 -38t51.5 -22.5t54 -7q59 0 108.5 33t49.5 98v355q0 33 -22.5 59.5t-48 52t-48 50t-22.5 53.5v223q0 33 -26.5 63.5t-59.5 30.5q-37 0 -63 -30.5t-26 -69.5v-795z" />
<glyph unicode="j" horiz-adv-x="1089" d="M20 315q0 -29 4.5 -61.5t26.5 -54.5l156 -154q16 -16 42.5 -27.5t49.5 -11.5h487q20 0 49 11.5t46 27.5l145 148q16 14 27.5 42.5t11.5 49.5v200q0 37 -22.5 65t-49 54.5t-49 51t-22.5 55.5v225q0 2 -13.5 28.5t-21.5 41t-22.5 18.5t-30.5 4q-33 0 -62 -28.5t-29 -63.5 v-666q0 -14 -10 -29.5t-24.5 -27.5t-32 -20.5t-29.5 -8.5h-356q-39 0 -57.5 19.5t-26.5 49.5t-11 63.5t-10.5 63.5t-25 49.5t-51.5 19.5q-25 0 -42.5 -13.5t-27.5 -33t-14.5 -43.5t-4.5 -44z" />
<glyph unicode="k" horiz-adv-x="1089" d="M20 137q0 -33 14.5 -57.5t37 -40.5t50.5 -24.5t56 -8.5q27 0 55.5 7t53 22.5t40 39t15.5 54.5v217q0 18 10 34.5t26.5 30t34 21.5t33.5 8h332q18 0 38 -9t36 -22.5t27.5 -32t11.5 -36.5v-225q0 -33 28.5 -59.5t57.5 -26.5q43 0 65.5 38.5t22.5 77.5v195q0 10 -6 34.5 t-17 35.5l-178 176l-47 28h-217l-6 11l293 303q8 8 8 18v21q0 61 -61 61q-14 0 -25.5 -3t-22.5 -13l-378 -371q-14 -14 -38 -19.5t-44 -5.5q-18 0 -41 6.5t-43.5 17.5t-33.5 28.5t-13 42.5v231q0 33 -27.5 59.5t-58.5 26.5q-37 0 -63 -32.5t-26 -67.5v-791z" />
<glyph unicode="l" horiz-adv-x="1067" d="M20 285q0 -16 10.5 -45t20.5 -39l156 -156q16 -16 42.5 -27.5t49.5 -11.5h635q37 0 73.5 24.5t36.5 63.5q0 31 -27.5 58.5t-58.5 27.5h-520q-10 0 -26.5 9.5t-31.5 22.5t-26.5 28.5t-11.5 29.5v224q0 35 -23.5 61.5t-51 51t-50 51t-22.5 61.5v225q0 31 -27.5 58.5 t-58.5 27.5q-37 0 -63 -33.5t-26 -68.5v-643z" />
<glyph unicode="m" horiz-adv-x="1089" d="M20 137q0 -33 14.5 -57.5t37 -40.5t50.5 -24.5t56 -8.5q27 0 55.5 7t52 22.5t38 38t14.5 55.5v365q0 37 -21.5 64.5t-48 55t-48 58t-21.5 76.5q0 59 31.5 92.5t91.5 33.5q25 0 48 -6t43.5 -19t33 -34.5t12.5 -50.5v-658q0 -29 27.5 -53t56.5 -24q27 0 56.5 24.5 t29.5 52.5v658q0 31 12 51.5t31.5 33.5t43 19t48.5 6q20 0 42.5 -6t41 -19t31 -32.5t12.5 -44.5v-657q0 -33 28.5 -59.5t57.5 -26.5q41 0 64.5 35.5t23.5 72.5v635q0 20 -11.5 49t-27.5 45l-145 146q-16 16 -45 27.5t-50 11.5h-487q-20 0 -49 -11.5t-43 -27.5l-148 -146 q-14 -14 -26.5 -39.5t-12.5 -46.5v-643z" />
<glyph unicode="n" horiz-adv-x="1089" d="M20 137q0 -33 14.5 -57.5t37 -40.5t50.5 -24.5t56 -8.5q27 0 55.5 7t52 22.5t38 38t14.5 55.5v365q0 37 -21.5 64.5t-48 55t-48 58t-21.5 76.5q0 20 5 41.5t16 40t28.5 30.5t42.5 12h504q14 0 31.5 -8t31.5 -22.5t23.5 -30.5t9.5 -31v-665q0 -33 28.5 -59.5t57.5 -26.5 q41 0 64.5 35.5t23.5 72.5v635q0 20 -11.5 49t-27.5 45l-145 146q-16 16 -45 27.5t-50 11.5h-487q-20 0 -49 -11.5t-43 -27.5l-148 -146q-14 -14 -26.5 -39.5t-12.5 -46.5v-643z" />
<glyph unicode="o" horiz-adv-x="1089" d="M20 285q0 -23 11.5 -49.5t27.5 -42.5l148 -148q6 -6 26.5 -17.5t26.5 -13.5t20.5 -5t18.5 -3h487q20 0 49 11.5t46 27.5l145 148q16 14 27.5 42.5t11.5 49.5v487q0 20 -11.5 49t-27.5 45l-145 146q-16 16 -45 27.5t-50 11.5h-487q-20 0 -49 -11.5t-43 -27.5l-148 -146 q-14 -14 -26.5 -39.5t-12.5 -46.5v-495zM199 276v504q0 33 30.5 62.5t61.5 29.5h356q45 0 64.5 -27.5t28 -66.5t14.5 -80t24 -65q2 -2 14.5 -16.5t28 -31t27.5 -29.5t16 -15q2 -4 12.5 -25.5t10.5 -30.5v-209q0 -31 -30 -61.5t-62 -30.5h-504l-9 4q-10 3 -14 5 q-25 10 -47 31.5t-22 51.5z" />
<glyph unicode="p" horiz-adv-x="1089" d="M20 137q0 -33 14.5 -57.5t37 -40.5t50.5 -24.5t56 -8.5q33 0 72 8.5t57 38.5q8 12 21.5 39t13.5 31v223q0 16 10 33.5t26.5 32t34 23.5t33.5 9h371q2 0 19.5 10.5l27.5 16.5q4 2 12.5 7t10.5 7q31 27 61.5 54.5t57 59.5t43 67.5t16.5 78.5q0 29 -8 64t-31 57l-145 146 q-16 16 -45 27.5t-50 11.5h-634q-51 0 -91.5 -40t-40.5 -91v-783zM199 745q0 20 5 43t16 41.5t28.5 30.5t42.5 12h504q25 0 42 -12t28.5 -30.5t17.5 -40t6 -39.5q0 -47 -26.5 -89.5t-84.5 -42.5h-471q-55 0 -81.5 40t-26.5 87z" />
<glyph unicode="q" horiz-adv-x="1089" d="M20 285q0 -23 11.5 -49.5t27.5 -42.5l148 -148q16 -16 42.5 -27.5t49.5 -11.5h270q16 0 31.5 7t29 16.5t28 16.5t28.5 7q16 0 33.5 -13t28.5 -17q29 -16 59 -17h61q31 0 65 4t63.5 17.5t49 38t19.5 65.5q0 14 -7 28.5t-16.5 27t-16.5 25t-7 26.5t7 28.5t16.5 27.5 t16.5 28.5t7 31.5v418q0 20 -11.5 49t-27.5 45l-145 146q-16 16 -45 27.5t-50 11.5h-487q-20 0 -49 -11.5t-43 -27.5l-148 -146q-14 -14 -26.5 -39.5t-12.5 -46.5v-495zM199 276v504q0 33 30.5 62.5t61.5 29.5h504q33 0 62.5 -29.5t29.5 -62.5v-356q0 -45 -29 -64.5 t-66.5 -27.5t-78.5 -14.5t-66 -24.5q-6 -6 -30.5 -28.5t-45.5 -43.5q-12 -12 -16 -14t-27 -12q-35 -10 -28 -11h-209l-9 4q-10 3 -14 5q-25 10 -47 31.5t-22 51.5z" />
<glyph unicode="r" horiz-adv-x="1089" d="M20 137q0 -33 14.5 -57.5t37 -40.5t50.5 -24.5t56 -8.5q33 0 72 8.5t57 38.5q8 12 21.5 39t13.5 31v223q0 18 10 34.5t26.5 30t34 21.5t33.5 8h332q18 0 38 -8t37 -22.5t27.5 -33t10.5 -36.5v-225q0 -33 28.5 -59.5t57.5 -26.5q41 0 64.5 35.5t23.5 72.5v203 q0 35 -22.5 64.5t-49 56t-49 52.5t-22.5 50v225q0 8 -13.5 35t-21.5 35l-162 162q-6 6 -34.5 18.5t-43.5 12.5h-495q-51 0 -91.5 -40t-40.5 -91v-783zM199 745q0 20 5 43t16 41.5t28.5 30.5t42.5 12h356q47 0 70.5 -40.5t23.5 -77.5q0 -23 -5 -47.5t-17 -44t-31.5 -32 t-48.5 -12.5h-332q-55 0 -81.5 40t-26.5 87z" />
<glyph unicode="s" horiz-adv-x="1089" d="M20 571q0 -16 9.5 -38.5t24 -42t31.5 -33t36 -13.5h512q31 0 51.5 -13t32.5 -32.5t18 -44t6 -49.5q0 -18 -6 -39.5t-17 -40t-28.5 -30t-42.5 -11.5h-348q-31 0 -53.5 18.5t-43 40t-43 40t-53.5 18.5q-63 0 -63 -63q0 -12 3 -23.5t13 -21.5l148 -148q16 -16 42.5 -27.5 t49.5 -11.5h487q23 0 50.5 11.5t44.5 27.5l145 148q23 23 31 56.5t8 61.5q0 20 -3 51t-20 48l-178 176l-47 28h-510q-31 0 -51 12.5t-32.5 32t-18.5 43t-6 48.5q0 18 5 39.5t16 40t28.5 30.5t42.5 12h495q31 0 54.5 -18t44 -39.5t43 -40t53.5 -18.5q61 0 61 63q0 12 -3 23.5 t-13 23.5l-145 146q-16 16 -45 27.5t-50 11.5h-487q-20 0 -49 -11.5t-43 -27.5l-148 -146q-14 -14 -26.5 -39.5t-12.5 -46.5v-209z" />
<glyph unicode="t" horiz-adv-x="1044" d="M20 965q0 -31 27 -58.5t59 -27.5h224q18 0 37.5 -11.5t34 -29t23.5 -37t9 -35.5v-660q0 -2 11.5 -19t17.5 -28q23 -31 57.5 -42t73.5 -11q23 0 50.5 6t51 19.5t39 34t15.5 49.5v387q0 35 -22.5 62.5t-48.5 54t-48.5 56.5t-22.5 70q0 20 6.5 44t19.5 43.5t32.5 33 t44.5 13.5h225q31 0 58.5 27.5t27.5 56.5q0 39 -37 64.5t-74 25.5h-782q-37 0 -73 -24.5t-36 -63.5z" />
<glyph unicode="u" horiz-adv-x="1089" d="M20 285q0 -23 11.5 -49.5t27.5 -42.5l148 -148q16 -16 42.5 -27.5t49.5 -11.5h487q23 0 50.5 11.5t44.5 27.5l145 148q16 14 27.5 42.5t11.5 49.5v635q0 37 -24.5 72.5t-63.5 35.5q-31 0 -58.5 -26.5t-27.5 -59.5v-666q0 -14 -9.5 -30.5t-23.5 -29.5t-31.5 -22.5 t-31.5 -9.5h-357q-12 0 -29.5 8.5t-32 20.5t-24.5 27.5t-10 29.5v224q0 29 -23.5 57.5t-51 56t-50 55t-22.5 56.5v223q0 33 -27.5 59.5t-58.5 26.5q-41 0 -65 -35t-24 -73v-635z" />
<glyph unicode="v" horiz-adv-x="1089" d="M20 571q0 -31 15.5 -56.5t37 -49t44 -46t35.5 -48.5q8 -20 10 -43t5 -45.5t9 -44t23 -39.5l161 -162q6 -6 35 -18.5t43 -12.5h209q14 0 43 12.5t35 18.5l162 162q20 20 26.5 46.5t8.5 54.5t6 53.5t22 47.5q12 14 31.5 34t38 41.5t32 46t13.5 48.5v349q0 37 -24.5 72.5 t-63.5 35.5q-31 0 -58.5 -26.5t-27.5 -59.5v-371q0 -4 -10.5 -24.5t-16.5 -30.5q-4 -4 -16 -17.5t-27.5 -28.5t-28 -28.5t-14.5 -17.5q-18 -25 -24 -66t-14.5 -78.5t-28 -66.5t-64.5 -29h-209q-12 0 -29.5 8.5t-32 20.5t-24.5 27.5t-10 29.5v666q0 29 -16.5 51.5t-40 36.5 t-51 21.5t-52.5 7.5q-29 0 -57.5 -8.5t-52 -26t-38 -42t-14.5 -56.5v-349z" />
<glyph unicode="w" horiz-adv-x="1089" d="M20 285q0 -20 11.5 -49t27.5 -43l148 -148q14 -16 43 -27.5t49 -11.5h487q23 0 50.5 11.5t44.5 27.5l145 148q14 14 26.5 38.5t12.5 44.5v644q0 37 -24.5 72.5t-63.5 35.5q-31 0 -58.5 -26.5t-27.5 -59.5v-666q0 -25 -13.5 -42t-32 -28t-41 -16.5t-40.5 -5.5 q-25 0 -48.5 6.5t-43 18.5t-31.5 32.5t-12 51.5v657q0 29 -30 53.5t-56 24.5q-27 0 -55.5 -24.5t-28.5 -53.5v-657q0 -25 -17.5 -55.5t-46.5 -30.5q-18 0 -35.5 25.5t-17.5 37.5v224q0 31 -23.5 59.5t-51 56t-50 54t-22.5 55.5v223q0 33 -27.5 59.5t-58.5 26.5 q-37 0 -63 -36t-26 -72v-635z" />
<glyph unicode="x" horiz-adv-x="1089" d="M20 164q0 -72 42 -115t116 -43q25 0 53.5 7t53 20.5t41 36t16.5 53.5v223q0 18 10 34.5t26.5 30t34 21.5t33.5 8h187q16 0 40.5 -10t35.5 -20l147 -148q23 -23 28 -61.5t11 -77.5t22.5 -66.5t59.5 -27.5q27 0 43 13t26.5 33.5t14.5 44t4 46.5q0 29 -8 62.5t-31 56.5 l-215 225q-2 0 -5 6t-3 8v4v4q0 4 3 9.5t5 7.5l215 223q23 23 32 54.5t9 62.5q0 20 -4 44.5t-14.5 45t-27.5 35t-44 14.5q-43 0 -59.5 -28.5t-22.5 -66.5t-11 -77t-28 -59l-147 -148q-10 -10 -34 -20.5t-36 -10.5h-184q-16 0 -41 9.5t-37 21.5l-148 148q-23 20 -27.5 59 t-11 77t-22.5 66.5t-59 28.5q-25 0 -41.5 -13.5t-27.5 -33.5t-15.5 -44t-4.5 -44q0 -29 8.5 -63.5t30.5 -57.5l217 -223q0 -2 3.5 -7t5.5 -10v-4v-4q-2 -2 -5 -8l-4 -6l-217 -225q-23 -23 -31 -56.5t-8 -64.5z" />
<glyph unicode="y" horiz-adv-x="942" d="M20 719q0 -27 15.5 -55.5t32.5 -47.5l215 -223q6 -6 17 -27.5t11 -27.5v-223q0 -27 16.5 -47.5t41 -34t51 -20.5t49.5 -7q39 0 74 11.5t57 41.5q6 10 17.5 27.5t11.5 19.5v226q0 2 3 11t8 20.5t9 19.5t6 10l232 240q2 2 10 19.5t12 27.5q4 4 6.5 12t2.5 10v232 q0 35 -25 64.5t-59 29.5q-16 0 -31 -4t-25 -20q-4 -6 -10 -17.5t-11 -22t-9.5 -19.5t-4.5 -11v-223q0 -6 -10 -27.5t-16 -28.5l-156 -153q-20 -20 -39.5 -22.5t-44.5 -2.5q-29 0 -57.5 5t-50.5 28l-131 131q-2 2 -7.5 10t-9.5 13q-6 10 -16 31.5t-10 23.5v223 q0 31 -27.5 58.5t-58.5 27.5q-37 0 -63 -37t-26 -71v-201z" />
<glyph unicode="z" horiz-adv-x="1089" d="M20 893q0 -23 4.5 -46.5t13.5 -44t25.5 -33.5t42.5 -13q31 0 53.5 18.5t43 40t43 39.5t53.5 18h487l-727 -735q-10 -10 -13 -21.5t-3 -23.5q0 -39 37 -62.5t72 -23.5h782q53 0 92 40t39 91v203q0 37 -24.5 73t-63.5 36q-35 0 -51.5 -19.5t-24.5 -49.5t-11 -63.5 t-11.5 -63.5t-26.5 -49.5t-57 -19.5h-496l727 736q12 10 14 21t2 24q0 39 -36.5 62.5t-71.5 23.5h-782q-31 0 -55.5 -14.5t-42 -37t-26 -51t-8.5 -55.5z" />
<glyph unicode="&#xad;" horiz-adv-x="1370" d="M20 700q0 -27 13.5 -47t33 -34.5t44 -22.5t49.5 -8h1046q25 0 49.5 8t45 22.5t34 35t13.5 46.5q0 35 -29 70t-66 35h-1140q-37 0 -65 -35t-28 -70z" />
<glyph unicode="&#xc6;" horiz-adv-x="1400" d="M20 449v8q0 18 10.5 44.5t20.5 39.5l131 139q12 12 22.5 41t10.5 45v278q0 14 12.5 43t18.5 35l239 240l47 24l705 7q25 0 49.5 -8.5t45 -22.5t33.5 -34.5t13 -47.5q0 -29 -10 -44t-37 -36q-25 -16 -45 -22.5t-49 -8.5q-27 -4 -61.5 -6t-66.5 -11t-54.5 -29.5 t-26.5 -61.5q0 -6 -1 -23.5t-3 -36t-3 -35t-1 -22.5q12 -49 38.5 -76.5t62.5 -41t78 -16.5t85 -5q37 -12 65.5 -38t28.5 -67q0 -31 -10 -46t-37 -36q-35 -23 -69.5 -27.5t-87.5 -8.5q-23 -2 -47.5 -7.5t-45 -16.5t-36 -29.5t-17.5 -49.5q0 -6 -1 -23.5t-3 -36t-3 -34.5 t-1 -23q12 -49 38.5 -76.5t62.5 -41t78 -16.5t85 -5q37 -12 65.5 -37.5t28.5 -66.5q0 -27 -13 -47.5t-33.5 -34.5t-45 -22.5t-49.5 -8.5h-279q-18 0 -45.5 11.5t-53 30t-43 40t-17.5 43.5v309q0 18 -10.5 42t-25.5 45.5t-35.5 37t-41.5 15.5h-139q-14 0 -32.5 -10.5t-34 -26 t-27 -32.5t-11.5 -32v-303q0 -43 -20.5 -75.5t-51 -53t-69.5 -31t-76 -10.5q-63 0 -119.5 27.5t-76.5 97.5q0 18 -1 62.5t-3 95.5t-3.5 96t-1.5 64zM438 944q16 -72 65.5 -102.5t117.5 -30.5q82 0 129 49t47 131q0 20 -6.5 50t-19.5 56.5t-33.5 45t-51.5 18.5h-139 q-16 0 -33.5 -10t-31 -24.5t-23.5 -33t-13 -32.5q0 -6 -1 -23.5t-3 -36t-3 -35t-1 -22.5z" />
<glyph unicode="&#xe6;" horiz-adv-x="1067" d="M20 137v203q0 14 7.5 35t15.5 35q6 4 18.5 16t25.5 27.5t25.5 29t16.5 19.5q2 4 8 13t12.5 19.5t10.5 18.5t4 10v225q0 8 13 35t22 35l161 162q10 10 40 21.5t46 11.5h488q37 0 73.5 -24.5t36.5 -65.5q0 -37 -19 -52.5t-49 -22.5t-64.5 -11.5t-64.5 -15.5t-49.5 -36.5 t-19.5 -74.5q0 -51 19.5 -78t49.5 -39t64.5 -16.5t64.5 -12.5t49 -24.5t19 -51.5t-19 -51t-49 -23.5t-64.5 -11.5t-64.5 -17t-49.5 -40t-19.5 -78q0 -49 19.5 -74.5t49.5 -37t64.5 -15.5t64.5 -11t49 -23.5t19 -51.5q0 -41 -35.5 -64.5t-74.5 -23.5h-201q-25 0 -49.5 11.5 t-42.5 30t-30.5 42t-12.5 47.5v217q0 23 -14.5 39.5t-34 26.5t-42 15t-38.5 5q-18 0 -40.5 -6t-41 -17t-32 -28.5t-13.5 -42.5v-223q0 -31 -16.5 -53.5t-41 -36t-53 -20.5t-53.5 -7q-29 0 -56.5 8.5t-50 24.5t-37 40.5t-14.5 57.5zM344 754q0 -59 29.5 -98.5t95.5 -39.5 t95.5 36t29.5 98v47q-12 41 -47 59t-76 18q-57 0 -92 -30.5t-35 -89.5z" />
<glyph unicode="&#x2000;" horiz-adv-x="697" />
<glyph unicode="&#x2001;" horiz-adv-x="1395" />
<glyph unicode="&#x2002;" horiz-adv-x="697" />
<glyph unicode="&#x2003;" horiz-adv-x="1395" />
<glyph unicode="&#x2004;" horiz-adv-x="465" />
<glyph unicode="&#x2005;" horiz-adv-x="348" />
<glyph unicode="&#x2006;" horiz-adv-x="232" />
<glyph unicode="&#x2007;" horiz-adv-x="232" />
<glyph unicode="&#x2008;" horiz-adv-x="174" />
<glyph unicode="&#x2009;" horiz-adv-x="279" />
<glyph unicode="&#x200a;" horiz-adv-x="77" />
<glyph unicode="&#x2010;" horiz-adv-x="1370" d="M20 700q0 -27 13.5 -47t33 -34.5t44 -22.5t49.5 -8h1046q25 0 49.5 8t45 22.5t34 35t13.5 46.5q0 35 -29 70t-66 35h-1140q-37 0 -65 -35t-28 -70z" />
<glyph unicode="&#x2011;" horiz-adv-x="1370" d="M20 700q0 -27 13.5 -47t33 -34.5t44 -22.5t49.5 -8h1046q25 0 49.5 8t45 22.5t34 35t13.5 46.5q0 35 -29 70t-66 35h-1140q-37 0 -65 -35t-28 -70z" />
<glyph unicode="&#x2012;" horiz-adv-x="1370" d="M20 700q0 -27 13.5 -47t33 -34.5t44 -22.5t49.5 -8h1046q25 0 49.5 8t45 22.5t34 35t13.5 46.5q0 35 -29 70t-66 35h-1140q-37 0 -65 -35t-28 -70z" />
<glyph unicode="&#x2013;" horiz-adv-x="1066" d="M20 700q0 -27 10.5 -47t25.5 -34.5t34 -22.5t38 -8h807q19 0 38 8t34.5 22.5t26 35t10.5 46.5q0 35 -22.5 70t-50.5 35h-879q-29 0 -50.5 -35t-21.5 -70z" />
<glyph unicode="&#x2014;" horiz-adv-x="2090" d="M20 700q0 -27 21 -47t51 -34.5t67.5 -22.5t76.5 -8h1613q39 0 76.5 8t69 22.5t52.5 35t21 46.5q0 35 -44.5 70t-102.5 35h-1758q-57 0 -100 -35t-43 -70z" />
<glyph unicode="&#x202f;" horiz-adv-x="279" />
<glyph unicode="&#x205f;" horiz-adv-x="348" />
<glyph unicode="&#x25fc;" horiz-adv-x="1024" d="M0 0v1024h1024v-1024h-1024z" />
</font>
</defs>
</svg>
